<svg height="512" viewBox="0 0 128 128" width="512" xmlns="http://www.w3.org/2000/svg"><g><g><path d="m97.561 28.333-33.561-9.815-33.561 9.815-4.022 52.334s13.371 20.298 37.583 28.815c24.212-8.517 37.583-28.815 37.583-28.815z" fill="#ffe94e"/><path d="m64 106.293v-84.649l30.729 8.986 3.78 49.191c-2.695 3.701-14.858 19.189-34.509 26.472z" fill="#ffc612"/><path d="m64 99.849c-14.706-6.093-24.567-17.075-28.353-21.844l3.289-42.78 25.064-7.325 25.064 7.33 3.289 42.782c-3.773 4.748-13.637 15.739-28.353 21.837z" fill="#01ebcd"/><path d="m64 96.586v-65.565l22.232 6.5 3.038 39.526c-3.832 4.642-12.624 13.971-25.27 19.539z" fill="#00c5ca"/><g><path d="m18.647 109.353 18.08-2.38 18.15-20.89 1.88-2.17 1.67-1.92 3.76-4.33 15.95-18.36-9.44-9.44-32 27.8-4.99 4.33-2.21 1.92-2.5 2.17-5.97 5.19z" fill="#f1f3f8"/><path d="m74.035 53.837-51.905 52.034 13.074-1.723 41.637-47.506z" fill="#c1d3ed"/><path d="m58.676 48.761h34.302v6.824h-34.302z" fill="#ffe94e" transform="matrix(.707 .707 -.707 .707 59.101 -38.337)"/><path d="m71.969 45.864h15.768v4.564h-15.768z" fill="#ffc612" transform="matrix(.707 .707 -.707 .707 57.433 -42.363)"/><path d="m84.923 49.989-6.912-6.912 19.49-17.924 5.346 5.346z" fill="#ea1c81"/><path d="m95.626 23.278 3.837-3.837a3.588 3.588 0 0 1 5.074 0l4.022 4.022a3.588 3.588 0 0 1 0 5.074l-3.837 3.837z" fill="#ffc612"/><g fill="#fff"><path d="m31.707 81.993h26.72l3.76-4.33h-25.49z"/><path d="m26.997 86.083h27.88l1.88-2.17h-27.26z"/></g></g></g><g><path d="m42.107 26.67a1.783 1.783 0 0 0 .492-.07l.957-.28a1.75 1.75 0 1 0 -.98-3.359l-.958.279a1.75 1.75 0 0 0 .489 3.43z"/><path d="m98.729 43.515a1.751 1.751 0 0 0 -1.612 1.879l2.673 34.787c-2.166 3.048-14.833 19.846-35.79 27.443a71.982 71.982 0 0 1 -17.445-9.318l11.2-12.9a1.75 1.75 0 1 0 -2.643-2.3l-19.4 22.338-15.159 2 2-15.159 41.731-36.251a1.75 1.75 0 1 0 -2.3-2.642l-24.313 21.125 2.917-37.953 23.412-6.846 15.253 4.461a1.75 1.75 0 0 0 .982-3.36l-15.744-4.6a1.745 1.745 0 0 0 -.982 0l-25.065 7.33a1.749 1.749 0 0 0 -1.253 1.546l-3.281 42.689-4.551 3.953c-.509-.665-.905-1.207-1.15-1.553l3.882-50.511 4.047-1.184a1.75 1.75 0 1 0 -.982-3.359l-5.208 1.523a1.751 1.751 0 0 0 -1.254 1.547l-4.022 52.333a1.751 1.751 0 0 0 .283 1.1c.031.047.627.943 1.756 2.407l-6.96 6.046a1.743 1.743 0 0 0 -.587 1.093l-2.381 18.078a1.756 1.756 0 0 0 1.963 1.964l18.078-2.381a1.749 1.749 0 0 0 1.093-.588l6.335-7.293a75.368 75.368 0 0 0 19.167 10.177 1.754 1.754 0 0 0 1.162 0c24.486-8.614 37.9-28.654 38.463-29.5a1.752 1.752 0 0 0 .284-1.1l-2.721-35.407a1.761 1.761 0 0 0 -1.878-1.614z"/><path d="m54.937 95.218a1.75 1.75 0 0 0 .632 2.392 64.964 64.964 0 0 0 7.761 3.856 1.745 1.745 0 0 0 .67.133 1.763 1.763 0 0 0 .67-.133c15.193-6.296 25.379-17.742 29.054-22.366a1.751 1.751 0 0 0 -2.743-2.176c-3.449 4.342-12.914 14.988-26.981 21.025a61.821 61.821 0 0 1 -6.67-3.364 1.752 1.752 0 0 0 -2.393.633z"/><path d="m61.893 80.648.578-.665a1.749 1.749 0 0 0 -2.64-2.3l-.579.665a1.75 1.75 0 1 0 2.641 2.3z"/><path d="m109.669 22.353-4.022-4.022a5.341 5.341 0 0 0 -7.548 0l-3.837 3.837a1.749 1.749 0 0 0 0 2.475l.584.584-.4.371-29.952-8.76a1.745 1.745 0 0 0 -.982 0l-15.452 4.518a1.75 1.75 0 0 0 .982 3.36l14.958-4.375 27.434 8.024-13.5 12.415-.934-.932a1.75 1.75 0 0 0 -2.475 2.474l9.913 9.913-.753.753-16.463-16.466a1.8 1.8 0 0 0 -2.475 0l-4.825 4.826a1.75 1.75 0 0 0 0 2.474l10.891 10.891-36.713 36.71a1.749 1.749 0 1 0 2.477 2.477l36.71-36.71 2.328 2.328-11.571 13.318a1.75 1.75 0 0 0 2.643 2.3l11.413-13.136 6.082 6.081a1.748 1.748 0 0 0 2.474 0l4.826-4.824a1.752 1.752 0 0 0 0-2.475l-5.316-5.315 1.99-1.99a1.749 1.749 0 0 0 0-2.475l-.932-.932 15.553-16.912.584.584a1.749 1.749 0 0 0 2.475 0l3.837-3.837a5.343 5.343 0 0 0 -.004-7.552zm-24.254 42.012-21.781-21.78 2.35-2.351 21.782 21.782zm-.672-16.776-4.332-4.332 16.912-15.557 2.973 2.973zm22.451-20.162-2.6 2.6-6.621-6.621 2.6-2.6a1.884 1.884 0 0 1 2.6 0l4.021 4.021a1.84 1.84 0 0 1 0 2.6z"/></g></g></svg>